<svg aria-hidden="true" style="position: absolute; width: 0; height: 0; overflow: hidden;" version="1.1" xmlns="http://www.w3.org/2000/svg" xmlns:xlink="http://www.w3.org/1999/xlink">
<defs>
<symbol id="icon-button-icon-dark" viewBox="0 0 32 32">
<path stroke-linejoin="miter" stroke-linecap="butt" stroke-miterlimit="4" stroke-width="0.5333" d="M16 0.267c8.689 0 15.733 7.044 15.733 15.733s-7.044 15.733-15.733 15.733c-8.689 0-15.733-7.044-15.733-15.733s7.044-15.733 15.733-15.733z"></path>
<path stroke-linejoin="round" stroke-linecap="round" stroke-miterlimit="4" stroke-width="0.5333" d="M19.467 16h-6.667M12.8 16l3.2-3.2M12.8 16l3.2 3.2"></path>
</symbol>
<symbol id="icon-coffee-cup" viewBox="0 0 32 32">
<path stroke-linejoin="round" stroke-linecap="round" stroke-miterlimit="4" stroke-width="2.4" d="M22.667 15.627v3.040c0 5.155-4.179 9.333-9.333 9.333s-9.333-4.179-9.333-9.333v-3.040c0-0.53 0.43-0.96 0.96-0.96h16.747c0.53 0 0.96 0.43 0.96 0.96z"></path>
<path stroke-linejoin="round" stroke-linecap="round" stroke-miterlimit="4" stroke-width="2.4" d="M16 12c0-1.333 0.952-2.667 2.857-2.667v0c2.104 0 3.81-1.706 3.81-3.81v-0.857"></path>
<path stroke-linejoin="round" stroke-linecap="round" stroke-miterlimit="4" stroke-width="2.4" d="M10.666 12v-0.667c0-2.209 1.791-4 4-4v0c1.473 0 2.667-1.194 2.667-2.667v-0.667"></path>
<path stroke-linejoin="round" stroke-linecap="round" stroke-miterlimit="4" stroke-width="2.4" d="M21.333 14.667h3.333c1.841 0 3.333 1.492 3.333 3.333s-1.492 3.333-3.333 3.333h-2"></path>
</symbol>
<symbol id="icon-icon_apple" viewBox="0 0 32 32">
<path d="M23.74 16.561c-0.033-3.554 2.985-5.283 3.123-5.364-1.709-2.429-4.358-2.761-5.289-2.788-2.225-0.228-4.383 1.298-5.516 1.298-1.156 0-2.901-1.276-4.782-1.238-2.42 0.036-4.685 1.403-5.926 3.524-2.563 4.326-0.651 10.683 1.804 14.18 1.228 1.713 2.663 3.625 4.542 3.557 1.838-0.074 2.524-1.142 4.742-1.142 2.197 0 2.842 1.142 4.758 1.099 1.972-0.031 3.214-1.72 4.4-3.448 1.419-1.963 1.989-3.896 2.012-3.995-0.046-0.015-3.831-1.424-3.868-5.683z"></path>
<path d="M20.121 6.109c0.988-1.205 1.665-2.845 1.477-4.509-1.431 0.062-3.22 0.965-4.25 2.144-0.912 1.039-1.726 2.741-1.516 4.342 1.607 0.117 3.257-0.791 4.289-1.977z"></path>
</symbol>
<symbol id="icon-icon_facebook" viewBox="0 0 32 32">
<path stroke-linejoin="miter" stroke-linecap="butt" stroke-miterlimit="4" stroke-width="0.5333" d="M16 0.267c8.689 0 15.733 7.044 15.733 15.733s-7.044 15.733-15.733 15.733c-8.689 0-15.733-7.044-15.733-15.733s7.044-15.733 15.733-15.733z"></path>
<path stroke-linejoin="round" stroke-linecap="round" stroke-miterlimit="4" stroke-width="0.5333" d="M18.667 10.667h-1.6c-0.707 0-1.386 0.281-1.886 0.781s-0.781 1.178-0.781 1.886v1.6h-1.6v2.133h1.6v4.267h2.133v-4.267h1.6l0.533-2.133h-2.133v-1.6c0-0.141 0.056-0.277 0.156-0.377s0.236-0.156 0.377-0.156h1.6v-2.133z"></path>
</symbol>
<symbol id="icon-icon_gogle-play" viewBox="0 0 32 32">
<path d="M3.338 2.847c-0.322 0.329-0.509 0.841-0.509 1.504v23.649c0 0.663 0.186 1.175 0.509 1.504l0.079 0.072 13.592-13.247v-0.313l-13.592-13.247-0.079 0.078z"></path>
<path d="M23.18 20.747l-4.526-4.418v-0.313l4.531-4.418 0.102 0.057 5.366 2.977c1.531 0.845 1.531 2.235 0 3.085l-5.473 3.029z"></path>
<path d="M22.465 21.512l-4.633-4.517-13.671 13.331c0.509 0.521 1.338 0.584 2.281 0.063l16.022-8.877z"></path>
<path d="M22.465 10.833l-16.022-8.877c-0.943-0.516-1.773-0.453-2.281 0.068l13.671 13.325 4.633-4.517z"></path>
</symbol>
<symbol id="icon-icon_instagram" viewBox="0 0 32 32">
<path stroke-linejoin="miter" stroke-linecap="butt" stroke-miterlimit="4" stroke-width="0.5333" d="M16 0.267c8.689 0 15.733 7.044 15.733 15.733s-7.044 15.733-15.733 15.733c-8.689 0-15.733-7.044-15.733-15.733s7.044-15.733 15.733-15.733z"></path>
<path stroke-linejoin="round" stroke-linecap="round" stroke-miterlimit="4" stroke-width="0.5333" d="M16 18.133c1.178 0 2.133-0.955 2.133-2.133s-0.955-2.133-2.133-2.133c-1.178 0-2.133 0.955-2.133 2.133s0.955 2.133 2.133 2.133z"></path>
<path stroke-linejoin="miter" stroke-linecap="butt" stroke-miterlimit="4" stroke-width="0.5333" d="M11.2 18.133v-4.267c0-1.473 1.194-2.667 2.667-2.667h4.267c1.473 0 2.667 1.194 2.667 2.667v4.267c0 1.473-1.194 2.667-2.667 2.667h-4.267c-1.473 0-2.667-1.194-2.667-2.667z"></path>
<path stroke-linejoin="round" stroke-linecap="round" stroke-miterlimit="4" stroke-width="0.5333" d="M18.933 13.072l0.005-0.006"></path>
</symbol>
<symbol id="icon-icon_twitter" viewBox="0 0 32 32">
<path stroke-linejoin="miter" stroke-linecap="butt" stroke-miterlimit="4" stroke-width="0.5333" d="M16 0.267c8.689 0 15.733 7.044 15.733 15.733s-7.044 15.733-15.733 15.733c-8.689 0-15.733-7.044-15.733-15.733s7.044-15.733 15.733-15.733z"></path>
<path stroke-linejoin="round" stroke-linecap="round" stroke-miterlimit="4" stroke-width="0.5333" d="M21.867 11.205c0 0-1.076 0.636-1.675 0.816-0.321-0.369-0.748-0.631-1.223-0.75s-0.975-0.089-1.432 0.086c-0.457 0.175-0.85 0.485-1.125 0.89s-0.419 0.885-0.412 1.374v0.533c-0.937 0.024-1.866-0.184-2.703-0.605s-1.558-1.044-2.097-1.811c0 0-2.133 4.8 2.667 6.933-1.098 0.746-2.407 1.119-3.733 1.067 4.8 2.667 10.667 0 10.667-6.133-0-0.149-0.015-0.297-0.043-0.443 0.544-0.537 1.109-1.957 1.109-1.957z"></path>
</symbol>
</defs>
</svg>
